<svg width="23" height="23" viewBox="0 0 23 23" fill="none" xmlns="http://www.w3.org/2000/svg">
<path d="M16.1553 14.3233H15.1724L14.8241 13.9874C16.0433 12.5691 16.7773 10.7278 16.7773 8.72484C16.7773 4.25852 13.157 0.638184 8.69066 0.638184C4.22434 0.638184 0.604004 4.25852 0.604004 8.72484C0.604004 13.1912 4.22434 16.8115 8.69066 16.8115C10.6937 16.8115 12.5349 16.0775 13.9532 14.8583L14.2891 15.2066V16.1894L20.5096 22.3975L22.3633 20.5438L16.1553 14.3233ZM8.69066 14.3233C5.59285 14.3233 3.09221 11.8226 3.09221 8.72484C3.09221 5.62703 5.59285 3.12638 8.69066 3.12638C11.7885 3.12638 14.2891 5.62703 14.2891 8.72484C14.2891 11.8226 11.7885 14.3233 8.69066 14.3233Z" fill="white"/>
</svg>
