<svg width="41" height="41" viewBox="0 0 41 41" fill="none" xmlns="http://www.w3.org/2000/svg">
<path d="M20.3956 0.929199C9.4077 0.929199 0.48999 9.84691 0.48999 20.8348C0.48999 31.8227 9.4077 40.7404 20.3956 40.7404C31.3835 40.7404 40.3012 31.8227 40.3012 20.8348C40.3012 9.84691 31.3835 0.929199 20.3956 0.929199ZM10.5821 33.3355C11.4381 31.544 16.6533 29.7923 20.3956 29.7923C24.1379 29.7923 29.373 31.544 30.2091 33.3355C27.5019 35.4853 24.098 36.7593 20.3956 36.7593C16.6932 36.7593 13.2893 35.4853 10.5821 33.3355ZM33.0556 30.4492C30.2091 26.9856 23.3018 25.8112 20.3956 25.8112C17.4894 25.8112 10.5821 26.9856 7.73563 30.4492C5.70526 27.7819 4.47111 24.4576 4.47111 20.8348C4.47111 12.0564 11.6172 4.91032 20.3956 4.91032C29.174 4.91032 36.3201 12.0564 36.3201 20.8348C36.3201 24.4576 35.0859 27.7819 33.0556 30.4492ZM20.3956 8.89144C16.5339 8.89144 13.4286 11.9967 13.4286 15.8584C13.4286 19.7201 16.5339 22.8254 20.3956 22.8254C24.2573 22.8254 27.3626 19.7201 27.3626 15.8584C27.3626 11.9967 24.2573 8.89144 20.3956 8.89144ZM20.3956 18.8442C18.7434 18.8442 17.4098 17.5106 17.4098 15.8584C17.4098 14.2062 18.7434 12.8726 20.3956 12.8726C22.0478 12.8726 23.3814 14.2062 23.3814 15.8584C23.3814 17.5106 22.0478 18.8442 20.3956 18.8442Z" fill="black"/>
</svg>
